<svg xmlns="http://www.w3.org/2000/svg" xmlns:xlink="http://www.w3.org/1999/xlink" width="500" zoomAndPan="magnify" viewBox="0 0 375 374.999991" height="500" preserveAspectRatio="xMidYMid meet" version="1.0"><defs><filter x="0%" y="0%" width="100%" height="100%" id="583a58a7b1"><feColorMatrix values="0 0 0 0 1 0 0 0 0 1 0 0 0 0 1 0 0 0 1 0" color-interpolation-filters="sRGB"/></filter><g/><clipPath id="129de18933"><path d="M 192 156 L 248.351562 156 L 248.351562 244 L 192 244 Z M 192 156 " clip-rule="nonzero"/></clipPath><clipPath id="a63cbcf0a7"><path d="M 126.851562 156 L 183 156 L 183 244 L 126.851562 244 Z M 126.851562 156 " clip-rule="nonzero"/></clipPath><mask id="22ca35eec4"><g filter="url(#583a58a7b1)"><rect x="-37.5" width="450" fill="#000000" y="-37.499999" height="449.999989" fill-opacity="0.3"/></g></mask><clipPath id="75c059f5a9"><path d="M 0.519531 1 L 43.71875 1 L 43.71875 36.878906 L 0.519531 36.878906 Z M 0.519531 1 " clip-rule="nonzero"/></clipPath><clipPath id="b0a63674e3"><rect x="0" width="44" y="0" height="37"/></clipPath><mask id="111b085778"><g filter="url(#583a58a7b1)"><rect x="-37.5" width="450" fill="#000000" y="-37.499999" height="449.999989" fill-opacity="0.3"/></g></mask><clipPath id="91c3c917c5"><path d="M 1 0.601562 L 51.839844 0.601562 L 51.839844 83.878906 L 1 83.878906 Z M 1 0.601562 " clip-rule="nonzero"/></clipPath><clipPath id="4fcfe3a2f4"><rect x="0" width="52" y="0" height="84"/></clipPath><mask id="81afe9936c"><g filter="url(#583a58a7b1)"><rect x="-37.5" width="450" fill="#000000" y="-37.499999" height="449.999989" fill-opacity="0.3"/></g></mask><clipPath id="a767d54887"><path d="M 0.480469 1 L 14.878906 1 L 14.878906 57.160156 L 0.480469 57.160156 Z M 0.480469 1 " clip-rule="nonzero"/></clipPath><clipPath id="35376f804a"><rect x="0" width="15" y="0" height="58"/></clipPath><clipPath id="509457ce3b"><path d="M 126.851562 141 L 190 141 L 190 170 L 126.851562 170 Z M 126.851562 141 " clip-rule="nonzero"/></clipPath><clipPath id="77c9149d4d"><path d="M 185 141 L 248.351562 141 L 248.351562 170 L 185 170 Z M 185 141 " clip-rule="nonzero"/></clipPath><mask id="560ecb48a4"><g filter="url(#583a58a7b1)"><rect x="-37.5" width="450" fill="#000000" y="-37.499999" height="449.999989" fill-opacity="0.3"/></g></mask><clipPath id="6be4bfa4e9"><path d="M 1 1 L 58 1 L 58 23.359375 L 1 23.359375 Z M 1 1 " clip-rule="nonzero"/></clipPath><clipPath id="e1073c6c96"><rect x="0" width="59" y="0" height="24"/></clipPath><mask id="22607f8443"><g filter="url(#583a58a7b1)"><rect x="-37.5" width="450" fill="#000000" y="-37.499999" height="449.999989" fill-opacity="0.3"/></g></mask><clipPath id="c30e7db3c9"><path d="M 1 1 L 58 1 L 58 23.359375 L 1 23.359375 Z M 1 1 " clip-rule="nonzero"/></clipPath><clipPath id="278386d82c"><rect x="0" width="59" y="0" height="24"/></clipPath><mask id="b55a19969e"><g filter="url(#583a58a7b1)"><rect x="-37.5" width="450" fill="#000000" y="-37.499999" height="449.999989" fill-opacity="0.56"/></g></mask><clipPath id="009eee5a92"><path d="M 0.558594 0.238281 L 34.398438 0.238281 L 34.398438 35.519531 L 0.558594 35.519531 Z M 0.558594 0.238281 " clip-rule="nonzero"/></clipPath><clipPath id="49f1f97ac6"><rect x="0" width="35" y="0" height="36"/></clipPath><clipPath id="103272d15e"><path d="M 184 82.308594 L 189 82.308594 L 189 93 L 184 93 Z M 184 82.308594 " clip-rule="nonzero"/></clipPath><clipPath id="653cf0646e"><path d="M 132 200 L 243 200 L 243 245.058594 L 132 245.058594 Z M 132 200 " clip-rule="nonzero"/></clipPath><mask id="3b6731382b"><g filter="url(#583a58a7b1)"><rect x="-37.5" width="450" fill="#000000" y="-37.499999" height="449.999989" fill-opacity="0.3"/></g></mask><clipPath id="7410b2879c"><path d="M 0.199219 0.640625 L 109 0.640625 L 109 33.519531 L 0.199219 33.519531 Z M 0.199219 0.640625 " clip-rule="nonzero"/></clipPath><clipPath id="8f7773f085"><rect x="0" width="110" y="0" height="34"/></clipPath></defs><path fill="#ffffff" d="M 128.589844 161.773438 L 136.179688 143.871094 C 136.179688 143.871094 169.828125 152.902344 184.8125 164.753906 C 197.671875 158.640625 197.292969 159.996094 197.292969 159.996094 L 236.617188 144.457031 L 245.46875 162.007812 L 185.511719 197.332031 Z M 128.589844 161.773438 " fill-opacity="1" fill-rule="nonzero"/><path fill="#0acf83" d="M 138.125 228.085938 L 128.511719 161.261719 C 128.511719 161.261719 155.804688 155.042969 180.8125 179.042969 C 194.222656 177.488281 194.175781 179.042969 194.175781 179.042969 C 194.175781 179.042969 220.617188 154.089844 246.410156 160.589844 L 236.941406 226.601562 C 236.941406 226.601562 208.964844 226 193.488281 243.226562 C 180.96875 243.226562 179.773438 241.320312 179.773438 241.320312 C 179.773438 241.320312 164.058594 224.203125 138.125 228.085938 Z M 138.125 228.085938 " fill-opacity="1" fill-rule="nonzero"/><path fill="#ffffff" d="M 195.332031 239.257812 L 200.234375 180.679688 C 200.234375 180.679688 213.097656 164.8125 245.082031 160.40625 C 245.082031 160.40625 211.664062 155.054688 194.628906 180.679688 L 193.53125 241.335938 Z M 195.332031 239.257812 " fill-opacity="1" fill-rule="nonzero"/><path fill="#1e1e1e" d="M 196.070312 244.628906 L 178.9375 244.628906 L 177.09375 174.453125 L 197.917969 174.453125 Z M 183.003906 240.441406 L 191.988281 240.441406 L 192.800781 180.480469 L 182.191406 180.480469 Z M 183.003906 240.441406 " fill-opacity="1" fill-rule="nonzero"/><g clip-path="url(#129de18933)"><path fill="#1e1e1e" d="M 195.546875 243.941406 L 192.519531 241.125 C 207.042969 225.207031 227.003906 224.320312 233.898438 224.570312 L 242.09375 163.394531 C 216.839844 161.40625 197.03125 179.628906 196.847656 179.808594 L 193.824219 175.117188 C 194.710938 174.269531 216.960938 153.328125 245.820312 157.117188 L 248.132812 157.421875 L 237.550781 229.601562 L 235.183594 229.316406 C 234.957031 229.289062 211.539062 226.75 195.546875 243.941406 Z M 195.546875 243.941406 " fill-opacity="1" fill-rule="nonzero"/></g><g clip-path="url(#a63cbcf0a7)"><path fill="#1e1e1e" d="M 179.445312 243.941406 C 163.453125 226.75 140.039062 229.285156 139.804688 229.316406 L 137.4375 229.59375 L 137.066406 227.046875 L 126.867188 157.429688 L 129.179688 157.125 C 158.03125 153.339844 180.296875 174.277344 181.179688 175.125 L 178.152344 179.816406 C 177.960938 179.636719 158.132812 161.417969 132.910156 163.402344 L 141.09375 224.574219 C 147.972656 224.324219 167.941406 225.207031 182.472656 241.128906 Z M 179.445312 243.941406 " fill-opacity="1" fill-rule="nonzero"/></g><g mask="url(#22ca35eec4)"><g transform="matrix(1, 0, 0, 1, 137, 206)"><g clip-path="url(#b0a63674e3)"><g clip-path="url(#75c059f5a9)"><path fill="#1e1e1e" d="M 0.972656 21.070312 C 0.972656 21.070312 37.582031 19.125 42.726562 1.046875 L 43.472656 36.546875 C 43.472656 36.546875 31.074219 20.164062 0.972656 21.070312 Z M 0.972656 21.070312 " fill-opacity="1" fill-rule="nonzero"/></g></g></g></g><g mask="url(#111b085778)"><g transform="matrix(1, 0, 0, 1, 192, 159)"><g clip-path="url(#4fcfe3a2f4)"><g clip-path="url(#91c3c917c5)"><path fill="#1e1e1e" d="M 51.542969 0.996094 C 51.542969 0.996094 42.273438 57.945312 1.664062 74.695312 L 1.5 83.546875 C 1.5 83.546875 19.695312 66.21875 43.582031 69.222656 C 49.984375 23.546875 51.542969 0.996094 51.542969 0.996094 Z M 51.542969 0.996094 " fill-opacity="1" fill-rule="nonzero"/></g></g></g></g><g mask="url(#81afe9936c)"><g transform="matrix(1, 0, 0, 1, 180, 185)"><g clip-path="url(#35376f804a)"><g clip-path="url(#a767d54887)"><path fill="#1e1e1e" d="M 0.820312 2.089844 C 0.820312 2.089844 0.273438 23.515625 7.496094 23.515625 C 14.714844 23.515625 14.535156 1.023438 14.535156 1.023438 L 13.511719 57.054688 L 0.941406 57.054688 Z M 0.820312 2.089844 " fill-opacity="1" fill-rule="nonzero"/></g></g></g></g><g clip-path="url(#509457ce3b)"><path fill="#1e1e1e" d="M 185.878906 169.878906 C 167.785156 151.628906 143.957031 149.316406 138.371094 149.023438 L 131.523438 161.671875 L 126.867188 157.429688 L 135.0625 141.980469 L 136.304688 141.980469 C 137.550781 141.980469 166.816406 142.03125 189.136719 165.003906 Z M 185.878906 169.878906 " fill-opacity="1" fill-rule="nonzero"/></g><g clip-path="url(#77c9149d4d)"><path fill="#1e1e1e" d="M 188.589844 169.878906 L 185.339844 164.988281 C 207.628906 142.015625 236.878906 141.941406 238.136719 141.964844 L 239.386719 141.964844 L 248.132812 157.417969 L 242.929688 161.671875 L 236.070312 149.039062 C 230.484375 149.347656 206.617188 151.671875 188.589844 169.878906 Z M 188.589844 169.878906 " fill-opacity="1" fill-rule="nonzero"/></g><path fill="#1e1e1e" d="M 132.828125 149.5625 C 133.425781 149.503906 133.886719 149.488281 134.394531 149.484375 C 134.90625 149.480469 135.394531 149.484375 135.886719 149.484375 C 136.871094 149.484375 137.851562 149.597656 138.835938 149.671875 C 140.796875 149.878906 142.742188 150.191406 144.671875 150.609375 C 148.566406 151.445312 152.347656 152.648438 156.011719 154.222656 C 159.699219 155.785156 163.222656 157.664062 166.582031 159.855469 C 168.273438 160.867188 169.867188 162.128906 171.472656 163.285156 C 173.078125 164.445312 174.550781 165.820312 176.066406 167.066406 C 174.4375 166.046875 172.851562 164.929688 171.191406 163.988281 C 169.53125 163.050781 167.839844 162.085938 166.117188 161.339844 C 162.714844 159.71875 159.191406 158.425781 155.546875 157.457031 C 152.003906 156.5 148.40625 155.90625 144.746094 155.675781 C 142.972656 155.5625 141.195312 155.546875 139.417969 155.632812 C 138.546875 155.699219 137.671875 155.746094 136.8125 155.867188 C 136.382812 155.914062 135.964844 155.972656 135.550781 156.050781 C 135.136719 156.128906 134.699219 156.203125 134.394531 156.285156 Z M 132.828125 149.5625 " fill-opacity="1" fill-rule="nonzero"/><path fill="#1e1e1e" d="M 240.417969 156.285156 C 240.109375 156.203125 239.671875 156.113281 239.257812 156.050781 C 238.84375 155.984375 238.425781 155.914062 237.996094 155.867188 C 237.152344 155.746094 236.273438 155.699219 235.390625 155.632812 C 233.613281 155.546875 231.835938 155.5625 230.058594 155.675781 C 226.398438 155.90625 222.800781 156.5 219.257812 157.457031 C 215.617188 158.429688 212.097656 159.730469 208.699219 161.355469 C 206.957031 162.101562 205.304688 163.097656 203.625 164.003906 C 201.945312 164.914062 200.378906 166.058594 198.75 167.082031 C 200.265625 165.835938 201.753906 164.472656 203.339844 163.300781 C 204.921875 162.128906 206.539062 160.882812 208.230469 159.871094 C 211.585938 157.679688 215.109375 155.800781 218.796875 154.234375 C 222.460938 152.664062 226.238281 151.457031 230.136719 150.625 C 232.070312 150.207031 234.019531 149.894531 235.988281 149.6875 C 236.96875 149.613281 237.949219 149.511719 238.9375 149.5 C 239.429688 149.5 239.925781 149.472656 240.429688 149.5 C 240.929688 149.523438 241.398438 149.5 242 149.578125 Z M 240.417969 156.285156 " fill-opacity="1" fill-rule="nonzero"/><path fill="#1e1e1e" d="M 187.203125 165.667969 L 174.425781 160.703125 C 174.425781 160.703125 184.152344 167.140625 187.1875 172.25 C 190.214844 167.125 199.929688 160.703125 199.929688 160.703125 Z M 187.203125 165.667969 " fill-opacity="1" fill-rule="nonzero"/><g mask="url(#560ecb48a4)"><g transform="matrix(1, 0, 0, 1, 129, 154)"><g clip-path="url(#e1073c6c96)"><g clip-path="url(#6be4bfa4e9)"><path fill="#1e1e1e" d="M 1.113281 2.960938 C 1.113281 2.960938 23.566406 -7.261719 55.640625 21.296875 C 55.640625 22.785156 57.945312 23.078125 57.945312 23.078125 L 49.636719 22.246094 C 49.636719 22.246094 20.621094 3.613281 1.113281 2.960938 Z M 1.113281 2.960938 " fill-opacity="1" fill-rule="nonzero"/></g></g></g></g><g mask="url(#22607f8443)"><g transform="matrix(1, 0, 0, 1, 187, 154)"><g clip-path="url(#278386d82c)"><g clip-path="url(#c30e7db3c9)"><path fill="#1e1e1e" d="M 57.878906 2.960938 C 57.878906 2.960938 35.429688 -7.261719 3.351562 21.296875 C 3.351562 22.785156 1.050781 23.078125 1.050781 23.078125 L 9.359375 22.246094 C 9.359375 22.246094 38.371094 3.613281 57.878906 2.960938 Z M 57.878906 2.960938 " fill-opacity="1" fill-rule="nonzero"/></g></g></g></g><path fill="#f9a825" d="M 186.800781 93.660156 C 185.695312 93.660156 184.601562 93.753906 183.511719 93.933594 C 182.425781 94.117188 181.359375 94.386719 180.320312 94.75 C 179.277344 95.109375 178.269531 95.550781 177.300781 96.078125 C 176.332031 96.605469 175.414062 97.207031 174.546875 97.890625 C 173.679688 98.570312 172.871094 99.316406 172.128906 100.128906 C 171.382812 100.945312 170.714844 101.8125 170.113281 102.738281 C 169.515625 103.664062 168.996094 104.636719 168.558594 105.648438 C 168.121094 106.660156 167.769531 107.699219 167.507812 108.769531 C 167.242188 109.84375 167.066406 110.925781 166.984375 112.027344 C 166.902344 113.125 166.910156 114.226562 167.007812 115.324219 C 167.105469 116.421875 167.296875 117.503906 167.578125 118.570312 C 167.855469 119.636719 168.222656 120.675781 168.671875 121.679688 C 169.125 122.6875 169.65625 123.648438 170.269531 124.566406 C 170.882812 125.480469 171.566406 126.34375 172.320312 127.144531 C 173.078125 127.949219 173.894531 128.683594 174.769531 129.351562 C 175.648438 130.019531 176.574219 130.609375 177.550781 131.125 L 177.550781 137.296875 L 196.042969 137.296875 L 196.042969 131.125 C 197.019531 130.609375 197.945312 130.019531 198.824219 129.351562 C 199.699219 128.683594 200.515625 127.949219 201.273438 127.144531 C 202.027344 126.34375 202.710938 125.484375 203.324219 124.566406 C 203.9375 123.648438 204.46875 122.6875 204.921875 121.679688 C 205.371094 120.675781 205.738281 119.640625 206.019531 118.574219 C 206.296875 117.503906 206.488281 116.421875 206.585938 115.324219 C 206.6875 114.226562 206.695312 113.128906 206.609375 112.027344 C 206.527344 110.929688 206.351562 109.84375 206.089844 108.773438 C 205.824219 107.703125 205.472656 106.660156 205.035156 105.648438 C 204.597656 104.636719 204.082031 103.667969 203.480469 102.742188 C 202.882812 101.816406 202.210938 100.945312 201.46875 100.132812 C 200.722656 99.316406 199.917969 98.570312 199.050781 97.890625 C 198.183594 97.210938 197.265625 96.605469 196.296875 96.078125 C 195.328125 95.550781 194.320312 95.109375 193.277344 94.75 C 192.238281 94.390625 191.171875 94.117188 190.085938 93.9375 C 188.996094 93.753906 187.902344 93.660156 186.800781 93.660156 Z M 186.800781 93.660156 " fill-opacity="1" fill-rule="nonzero"/><g mask="url(#b55a19969e)"><g transform="matrix(1, 0, 0, 1, 166, 102)"><g clip-path="url(#49f1f97ac6)"><g clip-path="url(#009eee5a92)"><path fill="#c97700" d="M 4.199219 0.625 C 3.820312 1.203125 3.46875 1.796875 3.152344 2.414062 C 2.835938 3.027344 2.550781 3.65625 2.296875 4.296875 C 2.042969 4.941406 1.824219 5.597656 1.640625 6.261719 C 1.457031 6.929688 1.308594 7.601562 1.195312 8.285156 C 1.082031 8.96875 1.003906 9.652344 0.960938 10.34375 C 0.921875 11.03125 0.914062 11.722656 0.945312 12.414062 C 0.976562 13.105469 1.042969 13.792969 1.144531 14.476562 C 1.246094 15.160156 1.382812 15.835938 1.554688 16.503906 C 1.726562 17.175781 1.933594 17.832031 2.175781 18.480469 C 2.417969 19.128906 2.691406 19.761719 3 20.382812 C 3.308594 21 3.648438 21.601562 4.015625 22.183594 C 4.386719 22.769531 4.789062 23.332031 5.21875 23.875 C 5.644531 24.414062 6.101562 24.933594 6.585938 25.425781 C 7.070312 25.921875 7.578125 26.390625 8.109375 26.828125 C 8.640625 27.269531 9.195312 27.683594 9.769531 28.066406 C 10.347656 28.449219 10.941406 28.800781 11.550781 29.125 L 11.550781 35.296875 L 30.042969 35.296875 L 30.042969 29.125 C 31.570312 28.320312 32.96875 27.335938 34.234375 26.171875 C 32.464844 26.09375 30.710938 25.871094 28.976562 25.503906 C 27.242188 25.136719 25.550781 24.628906 23.898438 23.980469 C 22.246094 23.332031 20.660156 22.554688 19.140625 21.644531 C 17.621094 20.734375 16.183594 19.703125 14.832031 18.554688 C 13.480469 17.40625 12.234375 16.152344 11.089844 14.796875 C 9.949219 13.441406 8.925781 12.003906 8.019531 10.476562 C 7.117188 8.953125 6.34375 7.363281 5.703125 5.710938 C 5.0625 4.054688 4.558594 2.363281 4.199219 0.625 Z M 4.199219 0.625 " fill-opacity="1" fill-rule="nonzero"/></g></g></g></g><path fill="#1e1e1e" d="M 186.800781 91.9375 C 185.609375 91.9375 184.425781 92.035156 183.253906 92.230469 C 182.078125 92.425781 180.929688 92.71875 179.804688 93.105469 C 178.679688 93.496094 177.59375 93.972656 176.546875 94.542969 C 175.503906 95.109375 174.511719 95.761719 173.574219 96.496094 C 172.636719 97.230469 171.765625 98.035156 170.964844 98.914062 C 170.160156 99.792969 169.433594 100.730469 168.789062 101.730469 C 168.140625 102.730469 167.582031 103.773438 167.109375 104.867188 C 166.636719 105.960938 166.257812 107.085938 165.972656 108.238281 C 165.6875 109.394531 165.5 110.566406 165.410156 111.753906 C 165.320312 112.941406 165.328125 114.125 165.4375 115.3125 C 165.542969 116.496094 165.75 117.664062 166.050781 118.816406 C 166.351562 119.96875 166.746094 121.085938 167.234375 122.171875 C 167.722656 123.257812 168.296875 124.292969 168.960938 125.285156 C 169.621094 126.273438 170.359375 127.203125 171.175781 128.070312 C 171.988281 128.9375 172.871094 129.730469 173.820312 130.449219 C 174.765625 131.167969 175.769531 131.804688 176.820312 132.359375 L 176.820312 138.632812 C 176.816406 138.742188 176.851562 138.835938 176.929688 138.914062 C 177.007812 138.992188 177.101562 139.027344 177.210938 139.023438 L 196.382812 139.023438 C 196.488281 139.023438 196.582031 138.984375 196.660156 138.90625 C 196.734375 138.832031 196.773438 138.738281 196.777344 138.632812 L 196.777344 132.359375 C 197.828125 131.804688 198.828125 131.167969 199.777344 130.449219 C 200.722656 129.726562 201.605469 128.933594 202.417969 128.066406 C 203.234375 127.199219 203.972656 126.273438 204.632812 125.28125 C 205.292969 124.292969 205.867188 123.253906 206.351562 122.171875 C 206.839844 121.085938 207.234375 119.964844 207.539062 118.816406 C 207.839844 117.664062 208.042969 116.496094 208.148438 115.3125 C 208.257812 114.125 208.265625 112.941406 208.175781 111.753906 C 208.085938 110.570312 207.898438 109.398438 207.613281 108.242188 C 207.328125 107.085938 206.949219 105.964844 206.476562 104.871094 C 206.003906 103.78125 205.445312 102.734375 204.800781 101.734375 C 204.152344 100.734375 203.429688 99.796875 202.625 98.917969 C 201.824219 98.039062 200.953125 97.234375 200.019531 96.5 C 199.082031 95.765625 198.089844 95.117188 197.046875 94.546875 C 196 93.976562 194.914062 93.5 193.789062 93.109375 C 192.667969 92.722656 191.515625 92.429688 190.34375 92.234375 C 189.171875 92.035156 187.988281 91.9375 186.800781 91.9375 Z M 193.832031 129.140625 L 192.589844 129.691406 L 192.589844 134.820312 L 181.003906 134.820312 L 181.003906 129.691406 L 179.753906 129.140625 C 179.15625 128.875 178.578125 128.578125 178.015625 128.246094 C 177.453125 127.914062 176.910156 127.550781 176.386719 127.15625 C 175.867188 126.761719 175.371094 126.34375 174.894531 125.890625 C 174.421875 125.441406 173.976562 124.96875 173.558594 124.464844 C 173.136719 123.964844 172.746094 123.441406 172.386719 122.898438 C 172.027344 122.351562 171.699219 121.789062 171.402344 121.207031 C 171.105469 120.625 170.84375 120.027344 170.617188 119.417969 C 170.386719 118.804688 170.195312 118.183594 170.035156 117.546875 C 169.878906 116.914062 169.757812 116.273438 169.671875 115.625 C 169.585938 114.976562 169.539062 114.328125 169.527344 113.675781 C 169.515625 113.023438 169.542969 112.371094 169.605469 111.71875 C 169.667969 111.070312 169.769531 110.425781 169.90625 109.785156 C 170.039062 109.148438 170.210938 108.519531 170.417969 107.898438 C 170.628906 107.28125 170.867188 106.675781 171.144531 106.082031 C 171.421875 105.492188 171.730469 104.917969 172.070312 104.359375 C 172.414062 103.804688 172.785156 103.265625 173.1875 102.753906 C 173.589844 102.238281 174.019531 101.75 174.476562 101.28125 C 174.933594 100.816406 175.417969 100.378906 175.925781 99.96875 C 176.433594 99.554688 176.960938 99.175781 177.511719 98.824219 C 178.066406 98.472656 178.632812 98.15625 179.21875 97.867188 C 179.808594 97.582031 180.410156 97.332031 181.023438 97.113281 C 181.640625 96.894531 182.265625 96.710938 182.902344 96.566406 C 183.539062 96.417969 184.183594 96.308594 184.832031 96.234375 C 185.480469 96.160156 186.132812 96.125 186.785156 96.125 C 187.4375 96.125 188.089844 96.160156 188.738281 96.234375 C 189.386719 96.308594 190.027344 96.417969 190.664062 96.566406 C 191.300781 96.710938 191.925781 96.894531 192.542969 97.113281 C 193.160156 97.332031 193.761719 97.582031 194.347656 97.867188 C 194.933594 98.15625 195.503906 98.472656 196.054688 98.824219 C 196.605469 99.175781 197.132812 99.554688 197.640625 99.96875 C 198.148438 100.378906 198.632812 100.816406 199.089844 101.28125 C 199.546875 101.75 199.980469 102.238281 200.382812 102.753906 C 200.78125 103.265625 201.15625 103.804688 201.496094 104.359375 C 201.835938 104.917969 202.148438 105.492188 202.421875 106.082031 C 202.699219 106.675781 202.941406 107.28125 203.148438 107.898438 C 203.355469 108.519531 203.527344 109.148438 203.664062 109.785156 C 203.800781 110.425781 203.898438 111.070312 203.960938 111.71875 C 204.023438 112.371094 204.050781 113.023438 204.039062 113.675781 C 204.027344 114.328125 203.980469 114.976562 203.894531 115.625 C 203.8125 116.273438 203.6875 116.914062 203.53125 117.546875 C 203.375 118.183594 203.179688 118.804688 202.953125 119.417969 C 202.722656 120.027344 202.460938 120.625 202.164062 121.207031 C 201.871094 121.789062 201.542969 122.351562 201.179688 122.898438 C 200.820312 123.441406 200.429688 123.964844 200.011719 124.464844 C 199.59375 124.96875 199.144531 125.441406 198.671875 125.890625 C 198.199219 126.34375 197.699219 126.761719 197.179688 127.15625 C 196.660156 127.550781 196.117188 127.914062 195.554688 128.246094 C 194.992188 128.578125 194.410156 128.875 193.816406 129.140625 Z M 193.832031 129.140625 " fill-opacity="1" fill-rule="nonzero"/><path fill="#1e1e1e" d="M 177.046875 140.441406 L 196.597656 140.441406 C 196.746094 140.441406 196.820312 140.515625 196.820312 140.664062 L 196.820312 143.699219 C 196.820312 143.847656 196.746094 143.921875 196.597656 143.921875 L 177.046875 143.921875 C 176.894531 143.921875 176.820312 143.847656 176.820312 143.699219 L 176.820312 140.664062 C 176.820312 140.515625 176.894531 140.441406 177.046875 140.441406 Z M 177.046875 140.441406 " fill-opacity="1" fill-rule="nonzero"/><path fill="#1e1e1e" d="M 184.722656 151.542969 L 188.871094 151.542969 L 186.796875 154.074219 Z M 184.722656 151.542969 " fill-opacity="1" fill-rule="nonzero"/><path fill="#1e1e1e" d="M 195.34375 143.636719 L 190.289062 149.8125 C 190.171875 149.964844 190.015625 150.046875 189.820312 150.050781 L 183.773438 150.050781 C 183.582031 150.046875 183.425781 149.964844 183.304688 149.8125 L 178.261719 143.636719 Z M 195.34375 143.636719 " fill-opacity="1" fill-rule="nonzero"/><path fill="#1e1e1e" d="M 193.867188 94.003906 L 197.226562 96.253906 L 202.617188 84.558594 Z M 193.867188 94.003906 " fill-opacity="1" fill-rule="nonzero"/><path fill="#1e1e1e" d="M 201.96875 98.285156 L 204.335938 101.5625 L 215.648438 90.90625 Z M 201.96875 98.285156 " fill-opacity="1" fill-rule="nonzero"/><path fill="#1e1e1e" d="M 207.019531 112.109375 L 226.363281 108.644531 L 206.71875 108.082031 Z M 207.019531 112.109375 " fill-opacity="1" fill-rule="nonzero"/><path fill="#1e1e1e" d="M 204.835938 124.332031 L 223.792969 130.914062 L 206.539062 120.660156 Z M 204.835938 124.332031 " fill-opacity="1" fill-rule="nonzero"/><g clip-path="url(#103272d15e)"><path fill="#1e1e1e" d="M 184.777344 92.84375 L 188.816406 92.84375 L 186.800781 82.308594 Z M 184.777344 92.84375 " fill-opacity="1" fill-rule="nonzero"/></g><path fill="#1e1e1e" d="M 176.371094 96.253906 L 179.730469 94.003906 L 170.980469 84.558594 Z M 176.371094 96.253906 " fill-opacity="1" fill-rule="nonzero"/><path fill="#1e1e1e" d="M 169.261719 101.5625 L 171.625 98.285156 L 157.949219 90.90625 Z M 169.261719 101.5625 " fill-opacity="1" fill-rule="nonzero"/><path fill="#1e1e1e" d="M 166.878906 108.082031 L 147.230469 108.644531 L 166.578125 112.109375 Z M 166.878906 108.082031 " fill-opacity="1" fill-rule="nonzero"/><path fill="#1e1e1e" d="M 149.804688 130.914062 L 168.761719 124.332031 L 167.058594 120.660156 Z M 149.804688 130.914062 " fill-opacity="1" fill-rule="nonzero"/><g clip-path="url(#653cf0646e)"><path fill="#ffffff" d="M 242.242188 200.316406 L 237.886719 230.039062 L 235.136719 229.707031 C 234.914062 229.679688 212.359375 227.199219 196.492188 243.535156 L 196.453125 245.023438 L 178.539062 245.023438 L 178.496094 243.535156 C 162.589844 227.148438 140.078125 229.679688 139.851562 229.707031 L 137.101562 230.03125 L 133.425781 204.914062 L 132.753906 200.320312 L 133.625 201.28125 C 133.824219 201.503906 134.023438 201.726562 134.214844 201.957031 C 134.410156 202.1875 134.691406 202.53125 134.917969 202.824219 C 135.0625 203.011719 135.203125 203.199219 135.339844 203.386719 C 135.425781 203.507812 135.511719 203.617188 135.589844 203.738281 C 135.730469 203.929688 135.859375 204.109375 135.984375 204.308594 C 136.164062 204.574219 136.335938 204.839844 136.507812 205.117188 L 136.539062 205.171875 C 136.699219 205.425781 136.851562 205.683594 136.996094 205.941406 C 137.140625 206.203125 137.308594 206.5 137.457031 206.785156 C 137.605469 207.066406 137.75 207.359375 137.890625 207.644531 C 138.230469 208.367188 138.542969 209.105469 138.824219 209.851562 C 138.878906 210.003906 138.933594 210.152344 138.988281 210.304688 C 139.039062 210.457031 139.089844 210.605469 139.144531 210.757812 C 139.195312 210.910156 139.246094 211.058594 139.292969 211.214844 C 139.339844 211.371094 139.386719 211.523438 139.429688 211.675781 C 139.753906 212.75 140 213.84375 140.175781 214.957031 C 140.285156 215.597656 140.359375 216.234375 140.414062 216.882812 C 143.835938 217.773438 146.757812 219.511719 149.171875 222.09375 C 149.609375 221.722656 150.0625 221.378906 150.539062 221.066406 C 151.015625 220.75 151.511719 220.464844 152.019531 220.210938 C 152.53125 219.953125 153.058594 219.730469 153.59375 219.539062 C 154.132812 219.347656 154.679688 219.191406 155.238281 219.066406 C 155.796875 218.941406 156.359375 218.851562 156.929688 218.792969 C 157.496094 218.738281 158.066406 218.714844 158.636719 218.730469 C 159.210938 218.742188 159.777344 218.789062 160.34375 218.871094 C 160.910156 218.957031 161.464844 219.070312 162.019531 219.222656 C 162.570312 219.371094 163.109375 219.554688 163.636719 219.773438 C 164.167969 219.988281 164.679688 220.234375 165.179688 220.515625 C 165.679688 220.792969 166.160156 221.101562 166.621094 221.4375 C 167.082031 221.777344 167.519531 222.140625 167.9375 222.53125 C 168.355469 222.921875 168.746094 223.335938 169.113281 223.773438 C 169.476562 224.210938 169.816406 224.671875 170.128906 225.148438 C 170.4375 225.628906 170.71875 226.125 170.96875 226.640625 C 171.21875 227.152344 171.4375 227.679688 171.621094 228.222656 C 173.351562 227.417969 175.171875 227.015625 177.078125 227.019531 C 178.089844 227.019531 179.089844 227.132812 180.074219 227.367188 C 181.058594 227.597656 182.003906 227.941406 182.90625 228.394531 C 183.8125 228.847656 184.652344 229.398438 185.429688 230.046875 C 186.207031 230.695312 186.898438 231.421875 187.507812 232.230469 C 188.113281 231.421875 188.804688 230.695312 189.582031 230.046875 C 190.359375 229.398438 191.199219 228.847656 192.105469 228.394531 C 193.011719 227.941406 193.953125 227.597656 194.941406 227.367188 C 195.925781 227.132812 196.921875 227.019531 197.933594 227.019531 C 199.84375 227.015625 201.660156 227.414062 203.390625 228.222656 C 203.578125 227.679688 203.796875 227.152344 204.046875 226.640625 C 204.296875 226.128906 204.578125 225.628906 204.886719 225.152344 C 205.199219 224.671875 205.535156 224.214844 205.902344 223.773438 C 206.269531 223.335938 206.660156 222.921875 207.078125 222.53125 C 207.496094 222.140625 207.933594 221.777344 208.394531 221.441406 C 208.859375 221.101562 209.335938 220.796875 209.835938 220.515625 C 210.335938 220.238281 210.847656 219.992188 211.378906 219.773438 C 211.90625 219.558594 212.445312 219.375 213 219.226562 C 213.550781 219.074219 214.109375 218.957031 214.671875 218.875 C 215.238281 218.792969 215.808594 218.746094 216.378906 218.730469 C 216.949219 218.71875 217.519531 218.742188 218.085938 218.796875 C 218.65625 218.851562 219.21875 218.941406 219.777344 219.066406 C 220.335938 219.191406 220.882812 219.351562 221.421875 219.539062 C 221.960938 219.730469 222.484375 219.957031 222.996094 220.210938 C 223.507812 220.464844 224 220.75 224.476562 221.066406 C 224.953125 221.382812 225.410156 221.722656 225.84375 222.09375 C 228.257812 219.507812 231.179688 217.773438 234.601562 216.882812 C 234.851562 213.976562 235.558594 211.1875 236.722656 208.515625 C 237.886719 205.84375 239.445312 203.425781 241.398438 201.265625 Z M 242.242188 200.316406 " fill-opacity="1" fill-rule="nonzero"/></g><g mask="url(#3b6731382b)"><g transform="matrix(1, 0, 0, 1, 133, 200)"><g clip-path="url(#8f7773f085)"><g clip-path="url(#7410b2879c)"><path fill="#1e1e1e" d="M 108.375 1.277344 C 106.417969 3.4375 104.859375 5.855469 103.695312 8.527344 C 102.53125 11.199219 101.824219 13.988281 101.578125 16.890625 C 98.152344 17.78125 95.234375 19.519531 92.816406 22.105469 C 92.382812 21.734375 91.925781 21.390625 91.449219 21.078125 C 90.972656 20.761719 90.480469 20.476562 89.96875 20.222656 C 89.457031 19.964844 88.933594 19.742188 88.394531 19.550781 C 87.855469 19.359375 87.308594 19.203125 86.75 19.078125 C 86.191406 18.953125 85.628906 18.863281 85.0625 18.808594 C 84.492188 18.75 83.921875 18.730469 83.351562 18.742188 C 82.78125 18.757812 82.210938 18.804688 81.648438 18.886719 C 81.082031 18.96875 80.523438 19.085938 79.972656 19.234375 C 79.421875 19.386719 78.882812 19.570312 78.351562 19.785156 C 77.824219 20.003906 77.308594 20.25 76.808594 20.527344 C 76.3125 20.808594 75.832031 21.113281 75.371094 21.453125 C 74.910156 21.789062 74.46875 22.152344 74.054688 22.542969 C 73.636719 22.933594 73.242188 23.347656 72.878906 23.785156 C 72.511719 24.222656 72.171875 24.683594 71.859375 25.164062 C 71.550781 25.640625 71.269531 26.136719 71.019531 26.652344 C 70.769531 27.164062 70.550781 27.691406 70.363281 28.230469 C 68.636719 27.425781 66.816406 27.027344 64.910156 27.03125 C 63.898438 27.03125 62.898438 27.144531 61.914062 27.378906 C 60.929688 27.609375 59.984375 27.953125 59.078125 28.40625 C 58.175781 28.859375 57.332031 29.410156 56.554688 30.058594 C 55.78125 30.703125 55.085938 31.433594 54.480469 32.242188 C 53.875 31.433594 53.179688 30.703125 52.40625 30.058594 C 51.628906 29.410156 50.785156 28.859375 49.882812 28.40625 C 48.976562 27.953125 48.03125 27.609375 47.046875 27.378906 C 46.0625 27.144531 45.066406 27.03125 44.050781 27.03125 C 42.144531 27.027344 40.328125 27.425781 38.597656 28.230469 C 38.410156 27.695312 38.191406 27.167969 37.941406 26.65625 C 37.691406 26.144531 37.410156 25.648438 37.097656 25.171875 C 36.789062 24.691406 36.449219 24.234375 36.082031 23.796875 C 35.71875 23.359375 35.324219 22.949219 34.910156 22.558594 C 34.492188 22.167969 34.054688 21.804688 33.59375 21.46875 C 33.132812 21.132812 32.65625 20.828125 32.15625 20.546875 C 31.660156 20.269531 31.144531 20.023438 30.617188 19.808594 C 30.089844 19.59375 29.550781 19.410156 29 19.257812 C 28.453125 19.109375 27.894531 18.992188 27.328125 18.910156 C 26.765625 18.828125 26.199219 18.78125 25.628906 18.765625 C 25.058594 18.753906 24.488281 18.773438 23.921875 18.828125 C 23.355469 18.882812 22.792969 18.972656 22.234375 19.097656 C 21.679688 19.222656 21.132812 19.378906 20.59375 19.566406 C 20.058594 19.757812 19.535156 19.980469 19.023438 20.234375 C 18.511719 20.488281 18.019531 20.773438 17.542969 21.085938 C 17.066406 21.398438 16.613281 21.742188 16.175781 22.109375 C 13.761719 19.527344 10.839844 17.789062 7.417969 16.894531 C 7.363281 16.246094 7.289062 15.609375 7.179688 14.96875 C 7.003906 13.859375 6.757812 12.765625 6.433594 11.6875 C 6.390625 11.535156 6.339844 11.382812 6.296875 11.230469 C 6.25 11.078125 6.195312 10.925781 6.148438 10.773438 C 6.097656 10.621094 6.046875 10.472656 5.992188 10.320312 C 5.933594 10.167969 5.882812 10.015625 5.828125 9.867188 C 5.550781 9.125 5.238281 8.386719 4.890625 7.660156 C 4.753906 7.371094 4.613281 7.082031 4.460938 6.800781 C 4.308594 6.515625 4.164062 6.234375 4 5.957031 C 3.835938 5.683594 3.703125 5.441406 3.542969 5.1875 L 3.511719 5.132812 C 3.339844 4.855469 3.167969 4.585938 2.988281 4.324219 C 2.863281 4.132812 2.734375 3.949219 2.59375 3.753906 C 2.515625 3.632812 2.429688 3.523438 2.34375 3.402344 C 2.207031 3.214844 2.066406 3.03125 1.921875 2.839844 C 1.695312 2.546875 1.457031 2.257812 1.21875 1.972656 C 0.980469 1.691406 0.847656 1.519531 0.628906 1.296875 L 0.234375 0.859375 L 0.417969 2.109375 L 0.628906 2.34375 C 0.828125 2.566406 1.027344 2.792969 1.21875 3.019531 C 1.457031 3.304688 1.695312 3.597656 1.921875 3.890625 C 2.066406 4.070312 2.207031 4.257812 2.34375 4.449219 C 2.429688 4.570312 2.515625 4.683594 2.59375 4.804688 C 2.734375 4.992188 2.863281 5.175781 2.988281 5.371094 C 3.167969 5.636719 3.339844 5.90625 3.511719 6.179688 C 3.523438 6.199219 3.535156 6.21875 3.542969 6.238281 C 3.703125 6.492188 3.851562 6.746094 4 7.003906 C 4.144531 7.261719 4.3125 7.566406 4.460938 7.847656 C 4.609375 8.125 4.753906 8.417969 4.890625 8.710938 C 5.234375 9.433594 5.546875 10.167969 5.828125 10.914062 C 5.882812 11.066406 5.9375 11.214844 5.992188 11.367188 C 6.042969 11.515625 6.09375 11.671875 6.148438 11.820312 C 6.199219 11.96875 6.25 12.125 6.296875 12.277344 C 6.34375 12.429688 6.390625 12.585938 6.433594 12.734375 C 6.753906 13.8125 7.003906 14.90625 7.179688 16.015625 C 7.289062 16.65625 7.363281 17.296875 7.417969 17.945312 C 10.839844 18.835938 13.761719 20.574219 16.175781 23.160156 C 16.613281 22.789062 17.066406 22.445312 17.542969 22.128906 C 18.019531 21.816406 18.511719 21.53125 19.023438 21.273438 C 19.535156 21.019531 20.058594 20.796875 20.597656 20.605469 C 21.136719 20.414062 21.683594 20.253906 22.242188 20.128906 C 22.800781 20.003906 23.363281 19.914062 23.929688 19.859375 C 24.5 19.800781 25.070312 19.78125 25.640625 19.792969 C 26.210938 19.804688 26.78125 19.855469 27.34375 19.9375 C 27.910156 20.019531 28.46875 20.136719 29.019531 20.285156 C 29.570312 20.4375 30.113281 20.621094 30.640625 20.835938 C 31.167969 21.050781 31.683594 21.296875 32.183594 21.578125 C 32.679688 21.855469 33.160156 22.164062 33.621094 22.5 C 34.082031 22.839844 34.523438 23.203125 34.941406 23.59375 C 35.355469 23.984375 35.75 24.398438 36.113281 24.835938 C 36.480469 25.273438 36.820312 25.734375 37.128906 26.210938 C 37.441406 26.691406 37.722656 27.1875 37.972656 27.703125 C 38.222656 28.214844 38.441406 28.742188 38.625 29.28125 C 40.355469 28.480469 42.175781 28.078125 44.082031 28.082031 C 45.09375 28.082031 46.09375 28.199219 47.078125 28.433594 C 48.0625 28.664062 49.007812 29.007812 49.910156 29.460938 C 50.816406 29.910156 51.65625 30.460938 52.433594 31.109375 C 53.210938 31.757812 53.902344 32.488281 54.511719 33.296875 C 55.117188 32.488281 55.808594 31.757812 56.585938 31.109375 C 57.363281 30.460938 58.203125 29.910156 59.109375 29.460938 C 60.015625 29.007812 60.957031 28.664062 61.941406 28.433594 C 62.929688 28.199219 63.925781 28.082031 64.9375 28.082031 C 66.847656 28.078125 68.664062 28.476562 70.394531 29.28125 C 70.582031 28.742188 70.796875 28.214844 71.050781 27.703125 C 71.300781 27.1875 71.578125 26.691406 71.890625 26.210938 C 72.203125 25.734375 72.539062 25.273438 72.90625 24.835938 C 73.273438 24.398438 73.664062 23.984375 74.082031 23.59375 C 74.5 23.203125 74.9375 22.839844 75.398438 22.5 C 75.863281 22.164062 76.339844 21.855469 76.839844 21.578125 C 77.339844 21.300781 77.851562 21.050781 78.382812 20.835938 C 78.910156 20.621094 79.449219 20.4375 80.003906 20.285156 C 80.554688 20.136719 81.113281 20.019531 81.675781 19.9375 C 82.242188 19.855469 82.8125 19.808594 83.382812 19.792969 C 83.953125 19.78125 84.523438 19.800781 85.09375 19.859375 C 85.660156 19.914062 86.222656 20.003906 86.78125 20.128906 C 87.339844 20.253906 87.886719 20.414062 88.425781 20.605469 C 88.964844 20.796875 89.488281 21.019531 90 21.273438 C 90.511719 21.53125 91.003906 21.816406 91.480469 22.128906 C 91.957031 22.445312 92.414062 22.789062 92.847656 23.160156 C 94.03125 21.894531 95.367188 20.816406 96.855469 19.929688 C 98.34375 19.042969 99.929688 18.382812 101.605469 17.945312 C 101.855469 15.042969 102.5625 12.253906 103.726562 9.582031 C 104.886719 6.910156 106.449219 4.492188 108.402344 2.332031 L 108.613281 2.097656 L 108.792969 0.84375 Z M 108.375 1.277344 " fill-opacity="1" fill-rule="nonzero"/></g></g></g></g><g fill="#0acf83" fill-opacity="1"><g transform="translate(93.368681, 264.717184)"><g><path d="M 14.421875 -10.242188 C 16.28125 -10.898438 17.179688 -12.210938 17.179688 -13.929688 C 17.179688 -16.390625 15.433594 -18.355469 12.320312 -18.738281 C 11.363281 -18.847656 10.925781 -18.847656 9.914062 -18.847656 L 2.183594 -18.847656 L 2.183594 0 L 9.695312 0 C 10.898438 0 11.527344 0 12.484375 -0.109375 C 15.023438 -0.410156 17.890625 -2.15625 17.890625 -5.679688 C 17.890625 -7.976562 16.796875 -9.558594 14.421875 -10.242188 Z M 7.101562 -15.023438 L 9.3125 -15.023438 C 9.75 -15.023438 10.1875 -14.996094 10.542969 -14.941406 C 11.472656 -14.804688 12.046875 -14.285156 12.046875 -13.21875 C 12.046875 -12.101562 11.417969 -11.636719 10.515625 -11.5 C 10.160156 -11.445312 9.75 -11.417969 9.3125 -11.417969 L 7.101562 -11.417969 Z M 10.980469 -3.851562 C 10.625 -3.824219 10.1875 -3.824219 9.75 -3.824219 L 7.101562 -3.824219 L 7.101562 -7.867188 L 9.613281 -7.867188 C 10.050781 -7.867188 10.488281 -7.867188 10.84375 -7.839844 C 11.855469 -7.757812 12.757812 -7.101562 12.757812 -5.84375 C 12.757812 -4.617188 11.855469 -3.90625 10.980469 -3.851562 Z M 10.980469 -3.851562 "/></g></g></g><g fill="#0acf83" fill-opacity="1"><g transform="translate(113.028681, 264.717184)"><g><path d="M 11.117188 -19.230469 C 5.246094 -19.230469 1.476562 -15.488281 1.476562 -9.421875 C 1.476562 -3.386719 5.246094 0.382812 11.117188 0.382812 C 16.988281 0.382812 20.757812 -3.386719 20.757812 -9.421875 C 20.757812 -15.488281 16.988281 -19.230469 11.117188 -19.230469 Z M 11.117188 -3.222656 C 8.277344 -3.222656 6.5 -5.4375 6.5 -9.421875 C 6.5 -13.4375 8.277344 -15.625 11.117188 -15.625 C 13.957031 -15.625 15.734375 -13.4375 15.734375 -9.421875 C 15.734375 -5.4375 13.957031 -3.222656 11.117188 -3.222656 Z M 11.117188 -3.222656 "/></g></g></g><g fill="#0acf83" fill-opacity="1"><g transform="translate(135.610277, 264.717184)"><g><path d="M 11.117188 -19.230469 C 5.246094 -19.230469 1.476562 -15.488281 1.476562 -9.421875 C 1.476562 -3.386719 5.246094 0.382812 11.117188 0.382812 C 16.988281 0.382812 20.757812 -3.386719 20.757812 -9.421875 C 20.757812 -15.488281 16.988281 -19.230469 11.117188 -19.230469 Z M 11.117188 -3.222656 C 8.277344 -3.222656 6.5 -5.4375 6.5 -9.421875 C 6.5 -13.4375 8.277344 -15.625 11.117188 -15.625 C 13.957031 -15.625 15.734375 -13.4375 15.734375 -9.421875 C 15.734375 -5.4375 13.957031 -3.222656 11.117188 -3.222656 Z M 11.117188 -3.222656 "/></g></g></g><g fill="#0acf83" fill-opacity="1"><g transform="translate(158.191875, 264.717184)"><g><path d="M 12.019531 -9.96875 L 20.160156 -18.847656 L 14.285156 -18.847656 L 7.101562 -10.515625 L 7.101562 -18.847656 L 2.183594 -18.847656 L 2.183594 0 L 7.101562 0 L 7.101562 -5.789062 L 8.441406 -7.265625 L 13.765625 0 L 19.914062 0 Z M 12.019531 -9.96875 "/></g></g></g><g fill="#0acf83" fill-opacity="1"><g transform="translate(179.544764, 264.717184)"><g/></g></g><g fill="#0acf83" fill-opacity="1"><g transform="translate(185.41588, 264.717184)"><g><path d="M 8.796875 -19.230469 C 5.054688 -19.230469 1.667969 -17.179688 1.667969 -13.546875 C 1.667969 -9.777344 4.179688 -8.441406 8.46875 -7.375 C 10.789062 -6.800781 11.5 -5.953125 11.5 -4.972656 C 11.5 -3.933594 10.460938 -3.222656 9.097656 -3.222656 C 7.621094 -3.222656 6.171875 -3.988281 5.84375 -5.761719 L 0.929688 -5.761719 C 1.230469 -1.53125 4.453125 0.382812 9.234375 0.382812 C 13.027344 0.382812 16.636719 -1.53125 16.636719 -5.300781 C 16.636719 -8.195312 14.941406 -10.269531 10.789062 -11.253906 C 7.675781 -11.992188 6.800781 -12.730469 6.800781 -13.929688 C 6.800781 -15.078125 7.566406 -15.625 8.6875 -15.625 C 10.296875 -15.625 11.117188 -14.585938 11.335938 -13.027344 L 16.253906 -13.027344 C 15.84375 -16.527344 13.765625 -19.230469 8.796875 -19.230469 Z M 8.796875 -19.230469 "/></g></g></g><g fill="#0acf83" fill-opacity="1"><g transform="translate(203.574122, 264.717184)"><g><path d="M 17.535156 -15.023438 L 17.535156 -18.847656 L 0.382812 -18.847656 L 0.382812 -15.023438 L 6.5 -15.023438 L 6.5 0 L 11.417969 0 L 11.417969 -15.023438 Z M 17.535156 -15.023438 "/></g></g></g><g fill="#0acf83" fill-opacity="1"><g transform="translate(221.896192, 264.717184)"><g><path d="M 11.117188 -19.230469 C 5.246094 -19.230469 1.476562 -15.488281 1.476562 -9.421875 C 1.476562 -3.386719 5.246094 0.382812 11.117188 0.382812 C 16.988281 0.382812 20.757812 -3.386719 20.757812 -9.421875 C 20.757812 -15.488281 16.988281 -19.230469 11.117188 -19.230469 Z M 11.117188 -3.222656 C 8.277344 -3.222656 6.5 -5.4375 6.5 -9.421875 C 6.5 -13.4375 8.277344 -15.625 11.117188 -15.625 C 13.957031 -15.625 15.734375 -13.4375 15.734375 -9.421875 C 15.734375 -5.4375 13.957031 -3.222656 11.117188 -3.222656 Z M 11.117188 -3.222656 "/></g></g></g><g fill="#0acf83" fill-opacity="1"><g transform="translate(244.477787, 264.717184)"><g><path d="M 16.878906 -4.589844 C 16.609375 -6.855469 15.898438 -8.304688 13.929688 -9.015625 C 16.445312 -9.75 17.726562 -11.335938 17.726562 -13.710938 C 17.726562 -17.042969 15.351562 -18.382812 12.621094 -18.710938 C 11.609375 -18.820312 10.84375 -18.847656 9.667969 -18.847656 L 2.183594 -18.847656 L 2.183594 0 L 7.101562 0 L 7.101562 -7.15625 L 8.195312 -7.15625 C 8.742188 -7.15625 9.207031 -7.15625 9.75 -7.128906 C 11.007812 -7.046875 11.828125 -5.84375 12.074219 -3.769531 C 12.238281 -2.429688 12.511719 -1.339844 12.949219 0 L 18.300781 0 C 17.5625 -1.121094 17.125 -2.457031 16.878906 -4.589844 Z M 7.101562 -10.707031 L 7.101562 -15.023438 L 9.015625 -15.023438 C 9.53125 -15.023438 9.96875 -15.023438 10.324219 -14.996094 C 11.582031 -14.886719 12.59375 -14.449219 12.59375 -12.867188 C 12.59375 -11.28125 11.445312 -10.84375 10.1875 -10.734375 C 9.832031 -10.707031 9.394531 -10.707031 8.878906 -10.707031 Z M 7.101562 -10.707031 "/></g></g></g><g fill="#0acf83" fill-opacity="1"><g transform="translate(264.165091, 264.717184)"><g><path d="M 16.636719 -3.824219 L 7.101562 -3.824219 L 7.101562 -7.539062 L 15.816406 -7.539062 L 15.816406 -11.363281 L 7.101562 -11.363281 L 7.101562 -15.023438 L 16.363281 -15.023438 L 16.363281 -18.847656 L 2.183594 -18.847656 L 2.183594 0 L 16.636719 0 Z M 16.636719 -3.824219 "/></g></g></g><g fill="#1e1e1e" fill-opacity="1"><g transform="translate(127.749182, 288.982599)"><g><path d="M 9.03125 -1.671875 L 9.03125 0 L 1.375 0 L 1.375 -10.625 L 8.875 -10.625 L 8.875 -8.953125 L 3.5 -8.953125 L 3.5 -6.15625 L 8.5 -6.15625 L 8.5 -4.484375 L 3.5 -4.484375 L 3.5 -1.671875 Z M 9.03125 -1.671875 "/></g></g></g><g fill="#1e1e1e" fill-opacity="1"><g transform="translate(140.847499, 288.982599)"><g><path d="M 6.390625 -10.5625 C 7.703125 -10.40625 8.757812 -9.898438 9.5625 -9.046875 C 10.363281 -8.191406 10.765625 -6.992188 10.765625 -5.453125 C 10.765625 -3.890625 10.351562 -2.640625 9.53125 -1.703125 C 8.707031 -0.765625 7.648438 -0.21875 6.359375 -0.0625 C 5.992188 -0.0195312 5.539062 0 5 0 L 1.375 0 L 1.375 -10.625 L 5.03125 -10.625 C 5.570312 -10.625 6.023438 -10.601562 6.390625 -10.5625 Z M 5.875 -1.71875 C 6.6875 -1.820312 7.328125 -2.195312 7.796875 -2.84375 C 8.273438 -3.488281 8.515625 -4.347656 8.515625 -5.421875 C 8.515625 -6.441406 8.28125 -7.25 7.8125 -7.84375 C 7.351562 -8.4375 6.722656 -8.785156 5.921875 -8.890625 C 5.609375 -8.929688 5.226562 -8.953125 4.78125 -8.953125 L 3.5 -8.953125 L 3.5 -1.671875 L 4.75 -1.671875 C 5.28125 -1.671875 5.65625 -1.6875 5.875 -1.71875 Z M 5.875 -1.71875 "/></g></g></g><g fill="#1e1e1e" fill-opacity="1"><g transform="translate(155.71529, 288.982599)"><g><path d="M 9.984375 -10.625 L 9.984375 -4.328125 C 9.984375 -3.828125 9.972656 -3.410156 9.953125 -3.078125 C 9.878906 -2.109375 9.484375 -1.316406 8.765625 -0.703125 C 8.054688 -0.0859375 7.007812 0.21875 5.625 0.21875 C 4.21875 0.21875 3.15625 -0.0859375 2.4375 -0.703125 C 1.726562 -1.316406 1.335938 -2.109375 1.265625 -3.078125 C 1.242188 -3.410156 1.234375 -3.828125 1.234375 -4.328125 L 1.234375 -10.625 L 3.34375 -10.625 L 3.34375 -4.109375 C 3.34375 -3.753906 3.351562 -3.5 3.375 -3.34375 C 3.425781 -2.71875 3.640625 -2.234375 4.015625 -1.890625 C 4.390625 -1.546875 4.925781 -1.375 5.625 -1.375 C 6.3125 -1.375 6.835938 -1.546875 7.203125 -1.890625 C 7.578125 -2.234375 7.789062 -2.71875 7.84375 -3.34375 C 7.863281 -3.5 7.875 -3.753906 7.875 -4.109375 L 7.875 -10.625 Z M 9.984375 -10.625 "/></g></g></g><g fill="#1e1e1e" fill-opacity="1"><g transform="translate(170.136864, 288.982599)"><g><path d="M 5.921875 -10.828125 C 7.304688 -10.828125 8.390625 -10.488281 9.171875 -9.8125 C 9.953125 -9.144531 10.398438 -8.265625 10.515625 -7.171875 L 10.53125 -7.015625 L 8.40625 -7.015625 L 8.375 -7.171875 C 8.09375 -8.554688 7.265625 -9.25 5.890625 -9.25 C 5.035156 -9.25 4.34375 -8.898438 3.8125 -8.203125 C 3.289062 -7.515625 3.03125 -6.570312 3.03125 -5.375 C 3.03125 -4.09375 3.289062 -3.101562 3.8125 -2.40625 C 4.34375 -1.71875 5.023438 -1.375 5.859375 -1.375 C 6.535156 -1.375 7.078125 -1.5625 7.484375 -1.9375 C 7.898438 -2.320312 8.179688 -2.851562 8.328125 -3.53125 L 8.359375 -3.671875 L 10.46875 -3.671875 L 10.453125 -3.53125 C 10.335938 -2.375 9.863281 -1.457031 9.03125 -0.78125 C 8.195312 -0.113281 7.109375 0.21875 5.765625 0.21875 C 4.273438 0.21875 3.070312 -0.269531 2.15625 -1.25 C 1.238281 -2.238281 0.78125 -3.570312 0.78125 -5.25 C 0.78125 -6.945312 1.257812 -8.300781 2.21875 -9.3125 C 3.1875 -10.320312 4.421875 -10.828125 5.921875 -10.828125 Z M 5.921875 -10.828125 "/></g></g></g><g fill="#1e1e1e" fill-opacity="1"><g transform="translate(184.804624, 288.982599)"><g><path d="M 7.125 -3.203125 L 3.5625 -3.203125 L 2.5 0 L 0.234375 0 L 4.0625 -10.625 L 6.71875 -10.625 L 10.484375 0 L 8.171875 0 Z M 5.359375 -8.796875 L 4.09375 -4.875 L 6.59375 -4.875 Z M 5.359375 -8.796875 "/></g></g></g><g fill="#1e1e1e" fill-opacity="1"><g transform="translate(198.826147, 288.982599)"><g><path d="M 9.6875 -8.953125 L 6.078125 -8.953125 L 6.078125 0 L 3.953125 0 L 3.953125 -8.953125 L 0.359375 -8.953125 L 0.359375 -10.625 L 9.6875 -10.625 Z M 9.6875 -8.953125 "/></g></g></g><g fill="#1e1e1e" fill-opacity="1"><g transform="translate(212.032165, 288.982599)"><g><path d="M 3.5 0 L 1.375 0 L 1.375 -10.625 L 3.5 -10.625 Z M 3.5 0 "/></g></g></g><g fill="#1e1e1e" fill-opacity="1"><g transform="translate(220.145173, 288.982599)"><g><path d="M 6.03125 -10.828125 C 7.65625 -10.828125 8.9375 -10.328125 9.875 -9.328125 C 10.8125 -8.328125 11.28125 -6.988281 11.28125 -5.3125 C 11.28125 -3.632812 10.8125 -2.289062 9.875 -1.28125 C 8.9375 -0.28125 7.65625 0.21875 6.03125 0.21875 C 4.40625 0.21875 3.125 -0.28125 2.1875 -1.28125 C 1.25 -2.289062 0.78125 -3.632812 0.78125 -5.3125 C 0.78125 -6.988281 1.25 -8.328125 2.1875 -9.328125 C 3.125 -10.328125 4.40625 -10.828125 6.03125 -10.828125 Z M 3.8125 -2.40625 C 4.351562 -1.71875 5.09375 -1.375 6.03125 -1.375 C 6.976562 -1.375 7.71875 -1.722656 8.25 -2.421875 C 8.78125 -3.117188 9.046875 -4.082031 9.046875 -5.3125 C 9.046875 -6.550781 8.78125 -7.515625 8.25 -8.203125 C 7.71875 -8.898438 6.976562 -9.25 6.03125 -9.25 C 5.082031 -9.25 4.335938 -8.898438 3.796875 -8.203125 C 3.265625 -7.515625 3 -6.550781 3 -5.3125 C 3 -4.070312 3.269531 -3.101562 3.8125 -2.40625 Z M 3.8125 -2.40625 "/></g></g></g><g fill="#1e1e1e" fill-opacity="1"><g transform="translate(235.536108, 288.982599)"><g><path d="M 10.703125 0 L 7.78125 0 L 3.421875 -8.0625 C 3.472656 -7.101562 3.5 -6.015625 3.5 -4.796875 L 3.5 0 L 1.375 0 L 1.375 -10.625 L 4.1875 -10.625 L 8.65625 -2.40625 C 8.601562 -3.351562 8.578125 -4.460938 8.578125 -5.734375 L 8.578125 -10.625 L 10.6875 -10.625 Z M 10.703125 0 "/></g></g></g></svg>